<?xml version="1.0" encoding="UTF-8"?>
<!DOCTYPE svg PUBLIC "-//W3C//DTD SVG 1.1//EN" "http://www.w3.org/Graphics/SVG/1.1/DTD/svg11.dtd">
<!-- Creator: CorelDRAW X7 -->
<svg xmlns="http://www.w3.org/2000/svg" xml:space="preserve" width="1280px" height="234px" version="1.1" style="shape-rendering:geometricPrecision; text-rendering:geometricPrecision; image-rendering:optimizeQuality; fill-rule:evenodd; clip-rule:evenodd"
viewBox="0 0 1280 234"
 xmlns:xlink="http://www.w3.org/1999/xlink">
 <defs>
  <style type="text/css">
   <![CDATA[
    .fil0 {fill:none}
    .fil2 {fill:#B0CB1F}
    .fil1 {fill:#61A375}
    .fil4 {fill:#4D897C;fill-rule:nonzero}
    .fil3 {fill:#61A375;fill-rule:nonzero}
   ]]>
  </style>
 </defs>
 <g id="Слой_x0020_1">
  <metadata id="CorelCorpID_0Corel-Layer"/>
  <g id="_591310800">
   <g>
    <path class="fil0" d="M1006 71c67,0 99,34 97,102"/>
    <path class="fil0" d="M1103 173c-67,0 -100,-34 -97,-102"/>
    <path class="fil1" d="M1006 71c67,0 99,34 97,102 -67,0 -100,-34 -97,-102z"/>
    <path class="fil1" d="M1280 71c-67,0 -99,34 -97,102 67,0 99,-34 97,-102z"/>
    <path class="fil2" d="M1143 145c-47,-51 -47,-99 0,-145 47,50 47,98 0,145z"/>
    <ellipse class="fil1" cx="1143" cy="187" rx="29" ry="31"/>
   </g>
   <path class="fil3" d="M63 33c10,0 18,3 24,8 6,5 9,12 9,20 0,8 -2,14 -7,19 -4,5 -8,7 -11,7 -1,0 -2,0 -4,-1 -1,-2 -2,-3 -2,-3 0,-1 1,-3 3,-6 5,-6 8,-13 8,-20 0,-5 -2,-10 -5,-13 -4,-3 -9,-5 -15,-5 -9,0 -17,3 -25,9 -7,6 -11,12 -11,19 0,5 2,8 6,10 2,1 3,2 3,3 0,1 -2,3 -6,5 -3,1 -6,2 -7,2 -2,0 -4,-1 -6,-4 -2,-3 -3,-6 -3,-10 0,-9 5,-18 14,-27 10,-8 21,-13 35,-13zm14 20c-3,3 -6,6 -7,10 -2,4 -3,12 -4,24 -2,12 -4,22 -7,29 -4,7 -9,13 -16,18 -7,4 -15,7 -23,7 -6,0 -11,-2 -14,-5 -4,-3 -6,-7 -6,-12 0,-2 1,-3 2,-4 1,-1 3,-3 6,-5 4,-2 6,-3 7,-3 1,0 1,0 2,1 1,1 1,1 1,2 0,1 0,2 -1,6 0,3 0,5 0,5 0,6 2,9 7,9 5,0 9,-3 13,-10 3,-6 6,-17 8,-31 1,-13 4,-23 7,-29 3,-6 7,-10 12,-12 4,-3 7,-4 9,-4 1,0 2,1 4,4z"/>
   <path id="1" class="fil3" d="M144 123c-7,6 -12,11 -17,13 -5,3 -9,5 -14,5 -5,0 -9,-2 -12,-6 -3,-4 -4,-10 -4,-17 0,-10 2,-23 6,-37 4,-15 9,-28 15,-40l18 -7c1,0 1,-1 1,-1 2,0 3,2 4,4 1,2 1,5 1,8 0,10 -2,20 -6,29 -5,10 -12,20 -21,31 0,5 -1,8 -1,10 0,4 1,8 3,10 1,3 3,4 6,4 2,0 5,-1 8,-3 2,-2 7,-6 13,-12l0 9zm-27 -29c6,-7 11,-15 14,-24 4,-8 6,-16 6,-22 0,-2 0,-3 -1,-4 -1,-1 -1,-2 -2,-2 -2,0 -4,5 -7,14 -4,9 -7,21 -10,38z"/>
   <path id="2" class="fil3" d="M196 123c-6,6 -11,11 -16,13 -5,3 -10,5 -15,5 -7,0 -12,-2 -16,-7 -4,-4 -6,-10 -6,-17 0,-10 4,-20 11,-28 6,-9 14,-13 23,-13 4,0 7,1 10,4 3,2 4,5 4,9 0,10 -10,19 -31,25 2,10 7,15 15,15 3,0 6,-1 9,-3 2,-2 7,-6 12,-12l0 9zm-36 -14c11,-4 17,-10 17,-20 0,-4 -1,-7 -4,-7 -4,0 -6,3 -9,8 -3,5 -4,11 -4,19z"/>
   <path id="3" class="fil3" d="M271 123c-7,7 -13,12 -16,14 -3,3 -6,4 -9,4 -8,0 -11,-7 -11,-21 -4,7 -9,12 -13,16 -4,3 -8,5 -12,5 -4,0 -7,-2 -10,-6 -3,-4 -5,-9 -5,-15 0,-8 2,-15 6,-22 4,-6 9,-12 15,-16 6,-4 11,-6 16,-6 6,0 10,3 12,8l15 -8 4 0 -7 22c-3,11 -4,18 -4,22 0,5 1,7 4,7 2,0 4,-1 6,-3 2,-2 5,-5 9,-10l0 9zm-51 4c4,0 9,-4 13,-13 4,-8 6,-16 6,-23 0,-3 0,-5 -2,-7 -1,-1 -2,-2 -4,-2 -5,0 -9,4 -14,13 -4,8 -6,16 -6,23 0,2 1,5 2,6 1,2 3,3 5,3z"/>
   <path id="4" class="fil3" d="M293 79c3,-1 6,-1 10,-2 3,0 5,-1 5,-1 1,0 1,0 1,1 0,1 0,1 0,2 -1,2 -2,5 -2,7 0,2 2,6 5,10 3,5 4,9 4,13 0,7 -4,14 -10,21 -7,7 -14,11 -22,11 -3,0 -6,-1 -8,-3 -3,-2 -4,-3 -4,-5 0,-2 1,-4 4,-7 2,-4 4,-5 5,-5 2,0 3,2 4,6 1,4 3,6 6,6 3,0 6,-1 8,-4 3,-3 4,-6 4,-9 0,-3 -2,-8 -5,-13 -3,-5 -5,-9 -6,-13 -6,10 -12,19 -21,29l-1 0 0 -7c11,-13 19,-25 23,-37z"/>
   <path id="5" class="fil3" d="M405 123c-8,7 -13,12 -17,14 -3,3 -6,4 -9,4 -7,0 -11,-7 -10,-21 -5,7 -9,12 -13,16 -4,3 -8,5 -13,5 -4,0 -7,-2 -10,-6 -3,-4 -4,-9 -4,-15 0,-8 2,-15 5,-22 4,-6 9,-12 15,-16 6,-4 12,-6 16,-6 6,0 10,3 13,8l14 -8 4 0 -6 22c-3,11 -5,18 -5,22 0,5 1,7 4,7 2,0 4,-1 6,-3 2,-2 6,-5 10,-10l0 9zm-52 4c5,0 9,-4 13,-13 4,-8 7,-16 7,-23 0,-3 -1,-5 -2,-7 -1,-1 -3,-2 -5,-2 -5,0 -9,4 -13,13 -4,8 -6,16 -6,23 0,2 0,5 1,6 2,2 3,3 5,3z"/>
   <path id="6" class="fil3" d="M473 123c-10,12 -20,18 -27,18 -4,0 -6,-1 -8,-4 -2,-2 -3,-5 -3,-9 0,-5 2,-13 6,-24 3,-6 4,-10 4,-12 0,-1 -1,-2 -2,-2 -1,0 -2,0 -3,1 -1,1 -2,2 -3,3 -1,1 -3,3 -4,4 -1,2 -3,3 -4,5l-4 5c-2,2 -3,4 -3,7 -1,4 -1,8 -2,11 0,3 0,7 0,11l-15 4c-1,-7 -1,-12 -1,-15 0,-8 1,-16 2,-23 2,-7 5,-15 9,-24l17 -3c-4,10 -6,18 -7,24 8,-9 14,-15 18,-19 5,-3 9,-5 12,-5 3,0 5,1 6,3 2,2 3,4 3,7 0,5 -2,12 -6,23 -3,8 -5,13 -5,15 0,3 1,5 4,5 3,0 9,-5 16,-15l0 9z"/>
   <path id="7" class="fil3" d="M514 123c-6,6 -11,11 -15,13 -5,3 -9,5 -13,5 -4,0 -7,-2 -10,-6 -2,-3 -3,-8 -3,-14 0,-5 1,-12 3,-20l3 -11 -5 0 2 -12 7 0 6 -23 19 -4 -7 26 10 -1 -3 11 -10 1 -5 17c-2,6 -2,10 -2,14 0,2 0,4 1,6 1,1 3,2 4,2 3,0 5,-1 8,-3 2,-1 5,-5 10,-10l0 9z"/>
   <path id="8" class="fil3" d="M625 123c-6,6 -12,11 -18,13 -7,3 -13,5 -21,5 -10,0 -18,-3 -24,-8 -7,-5 -10,-12 -10,-20 0,-8 3,-14 8,-20 5,-5 13,-9 23,-11 -10,-4 -15,-11 -15,-21 0,-7 3,-14 10,-19 7,-6 15,-9 25,-9 7,0 12,2 15,5 3,3 5,5 5,8 0,1 -1,4 -4,7 -2,3 -4,4 -5,4 -1,0 -2,-2 -2,-5 -2,-9 -5,-13 -10,-13 -4,0 -8,2 -11,7 -3,5 -5,10 -5,16 0,10 5,14 14,14 1,0 2,0 3,1 0,0 0,0 0,1 0,2 0,4 -1,6 0,2 -1,3 -2,3 -1,0 -2,0 -4,0 -2,0 -4,0 -5,0 -5,0 -9,2 -13,6 -4,4 -5,9 -5,16 0,6 2,12 6,16 4,4 9,6 16,6 5,0 10,-1 15,-4 6,-3 10,-7 15,-13l0 9z"/>
   <path id="9" class="fil3" d="M694 123c-11,12 -20,18 -28,18 -3,0 -6,-1 -8,-4 -2,-2 -3,-5 -3,-9 0,-5 2,-13 7,-24 2,-6 3,-10 3,-12 0,-1 -1,-2 -2,-2 -1,0 -1,0 -3,1 0,1 -2,2 -3,3 -1,1 -2,3 -4,4 -1,2 -3,3 -4,5l-4 5c-2,2 -3,4 -3,7 -1,4 -1,8 -2,11 0,3 0,7 0,11l-15 4c-1,-7 -1,-12 -1,-15 0,-8 1,-16 3,-23 1,-7 4,-15 8,-24l17 -3c-3,10 -6,18 -7,24 8,-9 14,-15 18,-19 5,-3 9,-5 12,-5 3,0 5,1 6,3 2,2 3,4 3,7 0,5 -2,12 -6,23 -3,8 -4,13 -4,15 0,3 1,5 3,5 3,0 9,-5 17,-15l0 9z"/>
   <path id="10" class="fil3" d="M763 123c-6,6 -14,11 -22,14 -4,13 -9,23 -15,30 -6,7 -12,10 -19,10 -3,0 -6,-1 -8,-4 -3,-2 -4,-5 -4,-9 0,-5 2,-10 7,-14 4,-5 12,-9 23,-12l3 -15c-5,5 -9,9 -12,12 -3,2 -7,3 -10,3 -4,0 -7,-1 -9,-5 -3,-4 -4,-9 -4,-15 0,-11 4,-20 11,-29 7,-9 15,-13 23,-13 5,0 9,2 12,6 2,-1 5,-2 8,-4l5 -2 2 0c-2,6 -3,12 -4,17l-7 37c6,-2 13,-8 20,-16l0 9zm-46 2c4,0 7,-2 9,-6 3,-4 5,-10 6,-16 2,-6 2,-11 2,-13 0,-3 0,-5 -1,-6 -1,-2 -3,-2 -4,-2 -5,0 -10,3 -13,10 -4,7 -6,15 -6,22 0,3 1,6 2,8 1,2 3,3 5,3zm6 19c-15,6 -22,12 -22,20 0,2 0,4 1,5 2,2 3,2 5,2 4,0 7,-2 9,-6 3,-5 5,-12 7,-21z"/>
   <path id="11" class="fil3" d="M809 123c-6,6 -12,11 -17,13 -5,3 -9,5 -13,5 -5,0 -10,-2 -13,-6 -3,-4 -4,-10 -4,-17 0,-10 2,-23 6,-37 4,-15 10,-28 16,-40l18 -7c0,0 0,-1 1,-1 1,0 2,2 3,4 1,2 1,5 1,8 0,10 -2,20 -6,29 -5,10 -11,20 -21,31 0,5 0,8 0,10 0,4 0,8 2,10 1,3 3,4 6,4 2,0 5,-1 8,-3 3,-2 7,-6 13,-12l0 9zm-27 -29c6,-7 11,-15 15,-24 3,-8 5,-16 5,-22 0,-2 0,-3 -1,-4 0,-1 -1,-2 -2,-2 -1,0 -4,5 -7,14 -3,9 -7,21 -10,38z"/>
   <path id="12" class="fil3" d="M842 47c0,12 -4,18 -12,18 -4,0 -8,-1 -11,-4 3,-4 5,-9 7,-14 3,2 6,3 9,3 2,0 5,-1 7,-3zm2 76c-11,12 -20,18 -25,18 -3,0 -6,-2 -8,-5 -2,-3 -3,-7 -3,-12 0,-11 4,-25 10,-44l18 -4 1 0 -7 23c-3,10 -4,17 -4,21 0,2 0,3 1,4 0,1 1,1 2,1 2,0 4,0 6,-2 2,-1 5,-4 9,-9l0 9z"/>
   <path id="13" class="fil3" d="M865 79c3,-1 7,-1 10,-2 3,0 5,-1 6,-1 0,0 1,0 1,1 0,1 -1,1 -1,2 -1,2 -1,5 -1,7 0,2 1,6 4,10 3,5 4,9 4,13 0,7 -3,14 -10,21 -7,7 -14,11 -21,11 -4,0 -6,-1 -9,-3 -3,-2 -4,-3 -4,-5 0,-2 1,-4 4,-7 2,-4 4,-5 5,-5 2,0 3,2 4,6 2,4 4,6 7,6 2,0 5,-1 8,-4 2,-3 3,-6 3,-9 0,-3 -1,-8 -4,-13 -4,-5 -6,-9 -7,-13 -5,10 -12,19 -20,29l-2 0 0 -7c11,-13 19,-25 23,-37z"/>
   <path id="14" class="fil3" d="M971 123c-11,12 -20,18 -28,18 -3,0 -5,-1 -7,-4 -3,-2 -4,-5 -4,-8 0,-6 3,-15 7,-25 2,-6 3,-10 3,-12 0,-2 -1,-3 -2,-3 -2,0 -5,2 -9,4 -3,3 -7,7 -11,11 -1,9 -2,20 -2,33l-16 4c0,-5 -1,-11 -1,-17 0,-15 2,-28 6,-41 4,-13 10,-26 18,-41 6,-2 12,-4 16,-6 5,-2 7,-3 8,-3 1,0 2,2 3,4 1,2 1,4 1,7 0,6 -1,11 -4,18 -3,6 -8,14 -15,23 7,-4 11,-6 13,-7 2,-1 4,-2 6,-2 3,0 5,1 6,3 2,2 2,4 2,7 0,5 -1,11 -5,21 -3,9 -5,15 -5,17 0,1 0,2 1,3 1,1 1,2 2,2 3,0 9,-5 17,-15l0 9zm-49 -31c17,-20 25,-35 25,-45 0,-3 -1,-5 -2,-5 -3,0 -6,5 -11,15 -5,10 -9,22 -12,35z"/>
   <path class="fil4" d="M388 218c-1,2 -3,4 -7,5 -1,4 -3,6 -5,8 -1,2 -3,3 -5,3 -1,0 -2,0 -3,-1 0,-1 -1,-1 -1,-2 0,-3 3,-6 9,-8l0 -2c2,-6 2,-9 3,-10l1 -4c0,0 -1,1 -1,2 -2,5 -4,9 -6,11 -2,2 -4,3 -6,3 -1,0 -2,0 -3,-1 -1,-2 -1,-3 -1,-5 0,-2 1,-5 2,-10 2,-4 2,-8 2,-9 0,-1 0,-2 0,-2 -1,-1 -1,-1 -2,-1 -1,0 -2,0 -3,2 -1,1 -2,2 -2,4 0,1 1,2 2,3 0,0 0,1 0,1 0,0 0,1 0,2 -1,0 -2,1 -2,1 -1,0 -1,-1 -2,-2 0,0 0,-1 0,-2 0,-3 0,-5 2,-8 2,-2 4,-3 6,-3 2,0 3,0 5,2 1,1 1,3 1,5 0,3 -1,7 -2,12 -1,3 -2,5 -2,7 0,1 0,2 1,2 2,0 4,-3 7,-8 2,-5 4,-12 7,-19 0,0 0,0 0,-1 0,0 1,0 2,0 2,0 3,0 3,0 0,0 0,0 0,0l-1 5 -3 14c-1,2 -1,5 -2,9 2,-1 5,-3 6,-5l0 2zm-13 7c-2,1 -3,2 -4,3 -2,1 -2,2 -2,3 0,0 0,1 0,1 1,0 1,0 2,0 1,0 1,0 2,-1 1,-2 2,-4 2,-6z"/>
   <path id="1" class="fil4" d="M406 218c0,1 -1,2 -2,2 0,0 -1,0 -1,0 -1,0 -2,0 -3,-1 -2,3 -4,5 -7,5 -1,0 -2,-1 -3,-2 -1,-2 -2,-3 -2,-5 0,-3 1,-6 4,-9 2,-2 4,-3 7,-3 1,0 2,0 3,0 0,1 1,1 1,1 0,1 0,1 0,2 0,2 -1,6 -2,9 1,1 1,1 2,1 1,0 2,0 3,-2l0 2zm-6 -12c0,0 -1,0 -1,0 -2,0 -3,1 -4,3 -1,2 -2,4 -2,7 0,1 1,3 1,3 0,1 1,2 2,2 1,0 2,-1 3,-3 -1,-2 -2,-4 -2,-6 0,-2 1,-4 3,-6z"/>
   <path id="2" class="fil4" d="M428 218c-2,2 -3,3 -5,4 -1,1 -2,2 -3,2 -1,0 -2,-1 -2,-2 -1,-1 -1,-2 -1,-3 -2,1 -3,3 -4,3 -1,1 -2,2 -3,2 -1,0 -2,-1 -3,-2 0,-1 -1,-2 -1,-3 0,-3 1,-7 3,-13l5 -1c-2,7 -3,11 -3,13 0,1 0,2 1,2 1,0 2,0 3,-2 1,-1 2,-2 2,-3l3 -9 5 -1c-1,4 -2,7 -3,9 0,2 0,3 0,4 0,1 0,2 1,2 1,0 2,-1 3,-2l2 -2 0 2z"/>
   <path id="3" class="fil4" d="M444 206c1,0 2,0 3,-1 1,0 2,0 2,0 0,0 0,0 0,0 0,0 0,1 0,1 0,1 -1,1 -1,2 0,1 1,2 2,3 0,1 1,2 1,3 0,2 -1,5 -3,7 -2,2 -4,3 -6,3 -1,0 -2,-1 -3,-1 0,-1 -1,-1 -1,-2 0,0 1,-1 1,-2 1,-1 2,-1 2,-1 0,0 1,0 1,2 0,1 1,1 2,1 1,0 1,0 2,-1 1,-1 1,-2 1,-2 0,-1 0,-3 -1,-4 -1,-2 -2,-3 -2,-4 -2,3 -3,6 -6,8l0 0 0 -2c3,-3 5,-7 6,-10z"/>
   <path id="4" class="fil4" d="M466 218c-1,2 -3,3 -4,4 -1,1 -2,2 -4,2 -1,0 -2,-1 -2,-2 -1,-1 -1,-2 -1,-4 0,-2 0,-3 1,-6l0 -3 -1 0 1 -3 1 0 2 -7 6 -1 -2 7 2 0 0 3 -3 1 -2 4c0,2 0,3 0,4 0,1 0,1 0,2 0,0 1,1 1,1 1,0 2,-1 2,-1 1,-1 2,-2 3,-3l0 2z"/>
   <path id="5" class="fil4" d="M488 218c-2,2 -4,3 -5,4 -1,1 -2,2 -3,2 -1,0 -2,-1 -2,-2 -1,-1 -1,-2 -1,-3 -2,1 -3,3 -4,3 -1,1 -2,2 -4,2 -1,0 -1,-1 -2,-2 -1,-1 -1,-2 -1,-3 0,-3 1,-7 3,-13l5 -1c-2,7 -3,11 -3,13 0,1 0,2 1,2 1,0 2,0 3,-2 1,-1 2,-2 2,-3l2 -9 6 -1c-1,4 -2,7 -3,9 0,2 0,3 0,4 0,1 0,2 1,2 1,0 2,-1 3,-2l2 -2 0 2z"/>
   <path id="6" class="fil4" d="M509 218c-2,2 -3,4 -4,4 -1,1 -2,2 -3,2 -1,0 -2,-1 -2,-2 -1,-1 -1,-2 -1,-4 -1,2 -2,3 -4,4 -1,1 -2,2 -3,2 -1,0 -2,-1 -3,-2 -1,-1 -1,-3 -1,-4 0,-3 1,-6 3,-9 2,-3 4,-4 7,-4 1,0 1,0 1,0 1,1 1,1 2,1l3 -12c2,-1 4,-1 4,-1 1,0 1,0 1,0 0,0 -1,2 -1,5 -3,11 -4,17 -4,20 0,0 0,1 0,1 0,0 1,1 1,1 1,0 2,-2 4,-4l0 2zm-14 2c1,0 2,-2 3,-4 1,-2 2,-5 2,-7 0,0 0,-1 -1,-2 0,0 0,0 -1,0 -1,0 -2,1 -4,3 -1,3 -1,5 -1,7 0,1 0,1 0,2 1,0 1,1 2,1z"/>
   <path id="7" class="fil4" d="M531 218c-2,2 -5,4 -9,6 -1,3 -2,6 -4,8 -1,1 -3,2 -5,2 -1,0 -1,0 -2,-1 0,0 0,-1 0,-2 0,-3 2,-5 7,-8l1 -4c-3,3 -5,4 -7,4 -1,0 -2,0 -2,-1 -1,-1 -1,-2 -1,-4 0,-2 0,-4 1,-7l2 -5 6 -1 -3 6c-1,3 -1,6 -1,7 0,1 0,2 1,2 1,0 2,-1 3,-2 1,-1 2,-3 2,-5l3 -7 5 -1 -5 17c3,-2 6,-4 8,-6l0 2zm-14 7c-1,1 -3,2 -4,3 -1,1 -1,2 -1,3 0,1 0,1 1,1 2,0 3,-2 4,-7z"/>
   <path id="8" class="fil4" d="M559 218c-1,1 -2,2 -4,2 -1,0 -2,-1 -3,-2 -1,2 -3,3 -4,4 -1,1 -2,1 -3,1 -1,0 -2,0 -3,-1 -1,-1 -1,-2 -1,-4 0,-3 0,-7 2,-12 2,-5 3,-9 5,-11 2,-1 3,-1 4,-2 2,0 3,0 3,0 0,0 1,0 1,1 0,0 0,1 0,2 0,1 0,3 -2,5 -1,2 -2,4 -4,7l-3 2c-1,3 -1,6 -1,7 0,1 0,2 0,2 1,0 1,1 2,1 0,0 1,0 1,-1 1,0 1,-1 2,-2 -1,-1 -1,-2 -1,-4 0,-2 1,-4 2,-5 1,-2 2,-3 3,-3 0,0 1,0 1,1 0,0 1,1 1,1 0,3 -2,6 -4,10 1,1 2,1 2,1 1,0 2,0 2,0 0,0 1,-1 2,-2l0 2zm-11 -11c2,-2 4,-4 5,-6 1,-2 1,-3 1,-4 0,-1 0,-1 0,-1 0,-1 0,-1 0,-1 -2,0 -4,4 -6,12z"/>
   <path id="9" class="fil4" d="M574 218c-2,2 -3,3 -5,4 -1,1 -3,2 -4,2 -2,0 -4,-1 -5,-2 -1,-2 -1,-3 -1,-5 0,-3 1,-6 3,-8 2,-3 4,-4 6,-4 1,0 2,0 3,1 1,1 1,2 1,3 0,3 -3,5 -9,7 1,3 2,4 5,4 1,0 1,0 2,-1 1,0 2,-1 4,-3l0 2zm-11 -4c4,-1 5,-2 5,-5 0,-1 0,-2 -1,-2 -1,0 -2,1 -3,2 0,1 -1,3 -1,5z"/>
   <path id="10" class="fil4" d="M585 218c-1,2 -3,3 -4,4 -1,1 -2,2 -4,2 -1,0 -2,-1 -2,-2 -1,-1 -1,-2 -1,-4 0,-2 0,-3 1,-6l0 -3 -1 0 1 -3 1 0 2 -7 6 -1 -2 7 2 0 0 3 -3 1 -2 4c0,2 0,3 0,4 0,1 0,1 0,2 0,0 1,1 1,1 1,0 2,-1 2,-1 1,-1 2,-2 3,-3l0 2z"/>
   <path id="11" class="fil4" d="M597 218c-2,2 -3,3 -5,4 -1,1 -2,2 -3,2 -1,0 -2,-1 -3,-2 -1,-1 -1,-2 -1,-4 0,-2 0,-3 1,-6l1 -3 -2 0 1 -3 2 0 2 -7 5 -1 -2 7 3 0 -1 3 -3 1 -1 4c-1,2 -1,3 -1,4 0,1 0,1 1,2 0,0 0,1 1,1 1,0 1,-1 2,-1 1,-1 2,-2 3,-3l0 2z"/>
   <path id="12" class="fil4" d="M612 218c-2,2 -3,3 -5,4 -1,1 -3,2 -4,2 -2,0 -3,-1 -5,-2 -1,-2 -1,-3 -1,-5 0,-3 1,-6 3,-8 2,-3 4,-4 6,-4 1,0 2,0 3,1 1,1 1,2 1,3 0,3 -3,5 -8,7 0,3 1,4 4,4 1,0 1,0 2,-1 1,0 2,-1 4,-3l0 2zm-11 -4c4,-1 5,-2 5,-5 0,-1 0,-2 -1,-2 -1,0 -2,1 -2,2 -1,1 -2,3 -2,5z"/>
   <path id="13" class="fil4" d="M627 218c-4,4 -6,6 -8,6 -1,0 -1,-1 -2,-2 -1,0 -1,-1 -1,-2 0,-2 1,-5 3,-8 -1,0 -2,1 -3,1 -1,2 -2,3 -4,5l-1 0 0 -2c1,-1 2,-2 3,-3 -1,-1 -2,-2 -2,-3 0,-1 1,-2 2,-3 0,-1 1,-2 2,-2 1,0 2,1 2,2 0,1 0,2 -1,4 2,-1 4,-2 6,-6l2 0 -2 6c-1,2 -1,3 -2,4 0,1 0,2 0,2 0,1 0,1 0,2 1,0 1,0 1,0 1,0 1,0 2,0 0,-1 1,-1 3,-3l0 2z"/>
   <path id="14" class="fil4" d="M647 197c0,3 -2,5 -4,5 -1,0 -2,0 -3,-1 1,-1 1,-3 2,-4 1,0 2,1 2,1 1,0 2,-1 3,-1zm0 21c-3,4 -6,6 -7,6 -1,0 -2,-1 -2,-2 -1,-1 -1,-2 -1,-3 0,-3 1,-7 3,-13l5 -1 0 0 -2 7c-1,2 -1,4 -1,6 0,0 0,0 0,1 0,0 1,0 1,0 0,0 1,0 1,0 1,-1 2,-2 3,-3l0 2z"/>
   <path id="15" class="fil4" d="M663 218c-1,2 -3,3 -4,4 -1,1 -2,2 -4,2 0,0 -1,-1 -2,-1 0,3 -1,6 -1,10 -1,0 -3,0 -5,1 0,-4 1,-9 2,-15 0,0 0,-1 -1,-2l-1 1 0 0 0 -2 3 -4c1,-4 2,-6 2,-8 1,-2 1,-3 2,-6 1,-2 1,-3 2,-3 0,0 0,-1 1,-1 1,0 2,0 3,-1 1,0 1,0 1,0 1,0 1,0 2,1 0,1 0,2 0,3 0,2 -1,4 -1,5 -1,2 -3,4 -6,7l-2 9c1,2 2,2 3,2 2,0 4,-1 6,-4l0 2zm-7 -12c2,-1 3,-3 4,-4 1,-2 2,-4 2,-5 0,-1 -1,-1 -1,-1 0,-1 0,-1 -1,-1 0,0 -1,1 -1,2 -1,2 -2,5 -3,9z"/>
   <path id="16" class="fil4" d="M680 206c1,0 2,0 2,-1 1,0 2,0 2,0 0,0 0,0 0,0 0,0 0,1 0,1 0,1 0,1 0,2 0,1 0,2 1,3 1,1 1,2 1,3 0,2 -1,5 -3,7 -2,2 -4,3 -6,3 -1,0 -2,-1 -2,-1 -1,-1 -1,-1 -1,-2 0,0 0,-1 1,-2 0,-1 1,-1 1,-1 1,0 1,0 1,2 1,1 1,1 2,1 1,0 2,0 2,-1 1,-1 2,-2 2,-2 0,-1 -1,-3 -2,-4 -1,-2 -1,-3 -2,-4 -1,3 -3,6 -5,8l-1 0 0 -2c3,-3 6,-7 7,-10z"/>
   <path id="17" class="fil4" d="M702 218c-2,2 -3,3 -5,4 -1,1 -2,2 -3,2 -1,0 -2,-1 -3,-2 -1,-1 -1,-2 -1,-4 0,-2 0,-3 1,-6l1 -3 -2 0 1 -3 2 0 2 -7 5 -1 -2 7 3 0 -1 3 -3 1 -1 4c-1,2 -1,3 -1,4 0,1 0,1 1,2 0,0 0,1 1,1 0,0 1,-1 2,-1 0,-1 1,-2 3,-3l0 2z"/>
   <path id="18" class="fil4" d="M723 218c-2,2 -3,3 -4,4 -2,1 -3,2 -4,2 -1,0 -1,-1 -2,-2 -1,-1 -1,-2 -1,-3 -1,1 -3,3 -4,3 -1,1 -2,2 -3,2 -1,0 -2,-1 -3,-2 0,-1 -1,-2 -1,-3 0,-3 1,-7 3,-13l6 -1c-3,7 -4,11 -4,13 0,1 1,2 2,2 0,0 1,0 2,-2 1,-1 2,-2 2,-3l3 -9 5 -1c-1,4 -2,7 -2,9 -1,2 -1,3 -1,4 0,1 0,2 1,2 1,0 2,-1 3,-2l2 -2 0 2z"/>
   <path id="19" class="fil4" d="M744 218c-1,2 -3,4 -4,4 -1,1 -2,2 -3,2 -1,0 -1,-1 -2,-2 0,-1 -1,-2 -1,-4 -1,2 -2,3 -3,4 -2,1 -3,2 -4,2 -1,0 -2,-1 -3,-2 -1,-1 -1,-3 -1,-4 0,-3 1,-6 3,-9 2,-3 5,-4 7,-4 1,0 1,0 2,0 0,1 1,1 1,1l3 -12c2,-1 4,-1 5,-1 0,0 0,0 0,0 0,0 0,2 -1,5 -3,11 -4,17 -4,20 0,0 0,1 0,1 1,0 1,1 1,1 1,0 3,-2 4,-4l0 2zm-14 2c1,0 3,-2 4,-4 1,-2 1,-5 1,-7 0,0 0,-1 0,-2 -1,0 -1,0 -2,0 -1,0 -2,1 -3,3 -1,3 -2,5 -2,7 0,1 0,1 1,2 0,0 0,1 1,1z"/>
   <path id="20" class="fil4" d="M766 218c-2,2 -5,4 -8,6 -1,3 -3,6 -4,8 -2,1 -4,2 -5,2 -1,0 -2,0 -2,-1 -1,0 -1,-1 -1,-2 0,-3 2,-5 7,-8l1 -4c-2,3 -4,4 -6,4 -1,0 -2,0 -3,-1 0,-1 -1,-2 -1,-4 0,-2 1,-4 2,-7l1 -5 6 -1 -2 6c-1,3 -2,6 -2,7 0,1 0,2 1,2 1,0 2,-1 3,-2 1,-1 2,-3 3,-5l2 -7 6 -1 -6 17c3,-2 6,-4 8,-6l0 2zm-13 7c-2,1 -3,2 -4,3 -1,1 -2,2 -2,3 0,1 1,1 2,1 1,0 2,-2 4,-7z"/>
   <path id="21" class="fil4" d="M804 218c-1,1 -1,1 -2,2 -1,0 -1,0 -1,0 -1,0 -2,0 -3,-1 -3,3 -5,5 -8,5 -2,0 -3,-2 -4,-4 -2,2 -4,4 -6,4 -1,0 -2,-1 -3,-2 -1,-1 -1,-2 -1,-4 0,-2 0,-3 1,-5 0,-2 1,-4 2,-7l5 -1 -1 5c-2,4 -2,7 -2,8 0,1 0,2 0,2 1,0 1,1 2,1 1,0 2,-1 3,-3 0,-2 0,-4 1,-7l2 -5 5 -1 -2 7c-1,3 -1,5 -1,6 0,1 0,1 0,2 0,0 1,1 1,1 1,0 2,-1 2,-1 1,-1 2,-1 3,-3 -1,-1 -1,-2 -1,-4 0,-2 0,-4 1,-6 1,-1 2,-2 3,-2 1,0 2,1 2,2 0,3 -1,6 -4,10 1,1 2,1 3,1 0,0 2,-1 3,-2l0 2z"/>
   <path id="22" class="fil4" d="M813 197c0,3 -1,5 -3,5 -1,0 -2,0 -3,-1 1,-1 1,-3 2,-4 1,0 2,1 2,1 1,0 2,-1 2,-1zm1 21c-3,4 -6,6 -7,6 -1,0 -2,-1 -2,-2 -1,-1 -1,-2 -1,-3 0,-3 1,-7 3,-13l5 -1 0 0 -2 7c-1,2 -1,4 -1,6 0,0 0,0 0,1 0,0 0,0 1,0 0,0 1,0 1,0 1,-1 2,-2 3,-3l0 2z"/>
   <path id="23" class="fil4" d="M825 218c-1,2 -3,3 -4,4 -1,1 -2,2 -4,2 -1,0 -2,-1 -2,-2 -1,-1 -1,-2 -1,-4 0,-2 0,-3 1,-6l1 -3 -2 0 1 -3 2 0 1 -7 6 -1 -2 7 3 0 -1 3 -3 1 -2 4c0,2 0,3 0,4 0,1 0,1 0,2 0,0 1,1 1,1 1,0 2,-1 2,-1 1,-1 2,-2 3,-3l0 2z"/>
   <path id="24" class="fil4" d="M845 218c-3,4 -6,6 -8,6 -1,0 -1,-1 -2,-1 -1,-1 -1,-2 -1,-3 0,-2 1,-4 2,-7 1,-2 1,-3 1,-3 0,-1 0,-1 -1,-1 0,0 -1,0 -2,1 -1,1 -2,2 -3,3 -1,3 -1,6 -1,9l-5 2c0,-2 0,-4 0,-5 0,-4 1,-8 2,-12 1,-4 3,-8 5,-12 2,0 3,-1 5,-1 1,-1 2,-1 2,-1 0,0 0,0 1,1 0,0 0,1 0,2 0,2 0,3 -1,5 -1,2 -3,4 -4,7 1,-2 3,-2 3,-2 1,-1 1,-1 2,-1 1,0 1,0 2,1 0,0 0,1 0,2 0,1 0,3 -1,6 -1,2 -2,4 -2,5 0,0 0,0 1,1 0,0 0,0 0,0 1,0 3,-1 5,-4l0 2zm-14 -8c5,-6 7,-10 7,-13 0,-1 0,-2 0,-2 -1,0 -2,2 -4,5 -1,2 -2,6 -3,10z"/>
   <path id="25" class="fil4" d="M865 209c1,-2 2,-2 3,-3 0,-1 1,-1 2,-1 2,0 3,1 4,2 1,1 1,2 1,4 0,3 -1,6 -3,9 -2,2 -4,4 -7,4 0,0 -1,-1 -1,-1 -1,0 -1,0 -2,-1 -1,5 -1,8 -2,11l-5 1c1,-7 2,-13 4,-20 -2,2 -3,4 -4,4l0 0 0 -2c2,-2 4,-6 6,-10l5 -1 -1 4zm-2 11c0,1 1,2 2,2 1,0 2,-1 3,-3 1,-3 2,-5 2,-7 0,-1 0,-2 -1,-2 0,-1 -1,-1 -1,-1 -1,0 -1,0 -2,0 0,1 -1,1 -1,2 0,1 -1,2 -1,4l-1 5z"/>
   <path id="26" class="fil4" d="M892 218c-2,2 -4,3 -5,4 -1,1 -3,2 -4,2 -1,0 -3,-1 -3,-2 -1,-1 -2,-3 -2,-5 0,-3 1,-6 2,-11 1,-4 3,-8 4,-11l6 -2c0,0 0,0 0,0 0,0 1,0 1,1 0,0 0,1 0,2 0,3 0,6 -2,9 -1,2 -3,5 -6,8 0,2 0,3 0,3 0,1 1,2 1,3 0,1 1,1 2,1 0,0 1,0 2,-1 1,0 2,-1 4,-3l0 2zm-8 -8c2,-2 3,-4 4,-7 1,-2 2,-4 2,-6 0,0 0,-1 0,-1 -1,-1 -1,-1 -1,-1 -1,0 -1,2 -2,4 -1,3 -2,6 -3,11z"/>
   <path id="27" class="fil4" d="M907 218c-2,2 -4,3 -5,4 -1,1 -3,2 -4,2 -2,0 -4,-1 -5,-2 -1,-2 -1,-3 -1,-5 0,-3 1,-6 3,-8 1,-3 4,-4 6,-4 1,0 2,0 3,1 1,1 1,2 1,3 0,3 -3,5 -9,7 1,3 2,4 5,4 0,0 1,0 2,-1 1,0 2,-1 4,-3l0 2zm-11 -4c4,-1 5,-2 5,-5 0,-1 0,-2 -1,-2 -1,0 -2,1 -3,2 0,1 -1,3 -1,5z"/>
   <path id="28" class="fil4" d="M928 218c-2,3 -4,4 -4,5 -1,0 -2,1 -3,1 -2,0 -3,-2 -3,-6 -1,2 -3,3 -4,4 -1,1 -2,2 -3,2 -1,0 -2,-1 -3,-2 -1,-1 -2,-3 -2,-4 0,-3 1,-5 2,-7 1,-1 3,-3 4,-4 2,-1 4,-2 5,-2 2,0 3,1 3,2l5 -2 1 0 -2 6c-1,3 -1,6 -1,7 0,1 0,2 1,2 0,0 1,-1 1,-1 1,-1 2,-2 3,-3l0 2zm-15 2c2,0 3,-2 4,-4 1,-2 2,-5 2,-7 0,-1 0,-1 -1,-2 0,0 0,0 -1,0 -1,0 -2,1 -4,3 -1,3 -1,5 -1,7 0,1 0,1 0,2 0,0 1,1 1,1z"/>
   <path id="29" class="fil4" d="M934 206c1,0 2,0 3,-1 1,0 2,0 2,0 0,0 0,0 0,0 0,0 0,1 0,1 0,1 -1,1 -1,2 0,1 1,2 2,3 0,1 1,2 1,3 0,2 -1,5 -3,7 -2,2 -4,3 -6,3 -1,0 -2,-1 -3,-1 0,-1 -1,-1 -1,-2 0,0 1,-1 1,-2 1,-1 2,-1 2,-1 0,0 1,0 1,2 0,1 1,1 2,1 1,0 1,0 2,-1 1,-1 1,-2 1,-2 0,-1 0,-3 -1,-4 -1,-2 -2,-3 -2,-4 -2,3 -4,6 -6,8l0 0 0 -2c3,-3 5,-7 6,-10z"/>
   <path id="30" class="fil4" d="M966 218c-2,2 -3,3 -4,4 -1,1 -3,2 -3,2 -2,0 -2,-1 -3,-2 0,-1 -1,-2 -1,-3 -1,1 -3,3 -4,3 -1,1 -2,2 -3,2 -1,0 -2,-1 -3,-2 0,-1 0,-2 0,-3 0,-3 0,-7 2,-13l6 -1c-3,7 -4,11 -4,13 0,1 1,2 2,2 0,0 1,0 2,-2 1,-1 2,-2 2,-3l3 -9 5 -1c-1,4 -2,7 -2,9 -1,2 -1,3 -1,4 0,1 1,2 1,2 1,0 2,-1 3,-2l2 -2 0 2z"/>
   <path id="31" class="fil4" d="M981 218c-3,4 -6,6 -8,6 0,0 -1,-1 -2,-2 0,0 -1,-1 -1,-2 0,-2 1,-5 4,-8 -1,0 -3,1 -4,1 -1,2 -2,3 -4,5l0 0 0 -2c1,-1 2,-2 3,-3 -2,-1 -2,-2 -2,-3 0,-1 0,-2 1,-3 1,-1 2,-2 3,-2 1,0 1,1 1,2 0,1 0,2 -1,4 3,-1 5,-2 6,-6l2 0 -2 6c-1,2 -1,3 -1,4 -1,1 -1,2 -1,2 0,1 0,1 1,2 0,0 0,0 1,0 0,0 1,0 1,0 1,-1 2,-1 3,-3l0 2z"/>
   <path id="32" class="fil4" d="M996 218c-2,2 -3,3 -4,4 -2,1 -3,2 -5,2 -2,0 -3,-1 -4,-2 -1,-2 -2,-3 -2,-5 0,-3 1,-6 3,-8 2,-3 4,-4 7,-4 1,0 2,0 3,1 0,1 1,2 1,3 0,3 -3,5 -9,7 0,3 2,4 4,4 1,0 2,0 3,-1 0,0 2,-1 3,-3l0 2zm-10 -4c3,-1 5,-2 5,-5 0,-1 -1,-2 -2,-2 0,0 -1,1 -2,2 -1,1 -1,3 -1,5z"/>
  </g>
 </g>
</svg>
